<svg viewBox="0 0 114 114" xmlns="http://www.w3.org/2000/svg" title="Loading spinner graphic">
	<g stroke="currentColor" stroke-width="14" fill="none" fill-rule="evenodd">
		<path class="opaque" d="M57 7C34.744 7 15.884 21.541 9.403 41.642 7.843 46.48 7 51.642 7 57c0 2.403.17 4.766.497 7.078C10.935 88.34 31.788 107 57 107c27.614 0 50-22.386 50-50"/>
		<path class="transparent" d="M57 7C34.744 7 15.884 21.541 9.403 41.642 7.843 46.48 7 51.642 7 57c0 2.403.17 4.766.497 7.078C10.935 88.34 31.788 107 57 107c27.614 0 50-22.386 50-50" stroke-opacity=".5"/>
	</g>
</svg>
