<svg width="60" height="60" viewBox="0 0 60 60" fill="none" xmlns="http://www.w3.org/2000/svg">
<path d="M2.5 34.75C2.49954 34.5416 2.55122 34.3363 2.65034 34.1529C2.74945 33.9695 2.89286 33.8138 3.0675 33.7L15 25.95L30 34.0775V50.3275L15.6525 58.1025C15.4549 58.2091 15.2322 58.2605 15.0078 58.2512C14.7834 58.242 14.5657 58.1725 14.3775 58.05L3.07 50.7C2.89525 50.5867 2.75158 50.4316 2.65203 50.2486C2.55249 50.0657 2.50023 49.8608 2.5 49.6525V34.75Z" stroke="black" stroke-linecap="round" stroke-linejoin="round"/>
<path d="M30 34.0775L45 25.95L56.9325 33.7C57.1071 33.8138 57.2506 33.9695 57.3497 34.1529C57.4488 34.3363 57.5005 34.5416 57.5 34.75V49.645C57.4998 49.8533 57.4475 50.0582 57.348 50.2411C57.2484 50.4241 57.1048 50.5792 56.93 50.6925L45.6225 58.0425C45.4343 58.165 45.2166 58.2345 44.9922 58.2437C44.7678 58.253 44.5451 58.2016 44.3475 58.095L30 50.33" stroke="black" stroke-linecap="round" stroke-linejoin="round"/>
<path d="M15 10.4475C14.9999 10.2222 15.0607 10.0009 15.176 9.8073C15.2913 9.61366 15.4568 9.4548 15.655 9.34752L29.405 1.89752C29.5877 1.79862 29.7922 1.74683 30 1.74683C30.2078 1.74683 30.4123 1.79862 30.595 1.89752L44.345 9.34752C44.5432 9.4548 44.7087 9.61366 44.824 9.8073C44.9393 10.0009 45.0001 10.2222 45 10.4475V25.9475L30 34.0725L15 25.9475V10.4475Z" stroke="black" stroke-linecap="round" stroke-linejoin="round"/>
</svg>
