<svg width="60" height="60" viewBox="0 0 60 60" fill="none" xmlns="http://www.w3.org/2000/svg">
<path d="M22.845 58.75C24.9167 55.8128 26.0988 52.3411 26.25 48.75" stroke="black" stroke-linecap="round" stroke-linejoin="round"/>
<path d="M37.155 58.75C35.0833 55.8128 33.9012 52.3411 33.75 48.75" stroke="black" stroke-linecap="round" stroke-linejoin="round"/>
<path d="M18.75 58.75H41.25" stroke="black" stroke-linecap="round" stroke-linejoin="round"/>
<path d="M1.25 41.25H58.75" stroke="black" stroke-linecap="round" stroke-linejoin="round"/>
<path d="M56.25 1.25H3.75C2.36929 1.25 1.25 2.36929 1.25 3.75V46.25C1.25 47.6307 2.36929 48.75 3.75 48.75H56.25C57.6307 48.75 58.75 47.6307 58.75 46.25V3.75C58.75 2.36929 57.6307 1.25 56.25 1.25Z" stroke="black" stroke-linecap="round" stroke-linejoin="round"/>
<path d="M42.5 13.75L30 26.25L25 21.25" stroke="black" stroke-linecap="round" stroke-linejoin="round"/>
<path d="M41.25 22.5001C41.2495 24.9461 40.4518 27.3254 38.9778 29.2774C37.5037 31.2294 35.4336 32.6478 33.081 33.3177C30.7285 33.9877 28.2217 33.8726 25.9404 32.9899C23.6592 32.1072 21.7278 30.5051 20.4388 28.4262C19.1498 26.3473 18.5735 23.905 18.7971 21.4692C19.0208 19.0333 20.0323 16.7368 21.6783 14.9274C23.3243 13.118 25.5152 11.8944 27.9191 11.442C30.323 10.9896 32.8088 11.3329 35 12.4201" stroke="black" stroke-linecap="round" stroke-linejoin="round"/>
</svg>
