<svg width="60" height="60" viewBox="0 0 60 60" fill="none" xmlns="http://www.w3.org/2000/svg">
<path d="M30 38.75C32.0711 38.75 33.75 37.0711 33.75 35C33.75 32.9289 32.0711 31.25 30 31.25C27.9289 31.25 26.25 32.9289 26.25 35C26.25 37.0711 27.9289 38.75 30 38.75Z" stroke="black" stroke-linecap="round" stroke-linejoin="round"/>
<path d="M32.65 32.3475L45.0275 19.975" stroke="black" stroke-linecap="round" stroke-linejoin="round"/>
<path d="M6.25 36.25H11.25" stroke="black" stroke-linecap="round" stroke-linejoin="round"/>
<path d="M53.75 36.25H48.75" stroke="black" stroke-linecap="round" stroke-linejoin="round"/>
<path d="M51.94 25.9125L47.3225 27.825" stroke="black" stroke-linecap="round" stroke-linejoin="round"/>
<path d="M39.0875 13.0576L37.175 17.6776" stroke="black" stroke-linecap="round" stroke-linejoin="round"/>
<path d="M30 11.25V16.25" stroke="black" stroke-linecap="round" stroke-linejoin="round"/>
<path d="M20.9125 13.0576L22.825 17.6776" stroke="black" stroke-linecap="round" stroke-linejoin="round"/>
<path d="M13.2075 18.205L16.7375 21.7425" stroke="black" stroke-linecap="round" stroke-linejoin="round"/>
<path d="M8.06 25.9125L12.675 27.825" stroke="black" stroke-linecap="round" stroke-linejoin="round"/>
<path d="M30 6.25C22.375 6.25 15.0624 9.27901 9.67068 14.6707C4.27901 20.0624 1.25 27.375 1.25 35V43.75C1.25 44.413 1.51339 45.0489 1.98223 45.5178C2.45107 45.9866 3.08696 46.25 3.75 46.25H56.25C56.913 46.25 57.5489 45.9866 58.0178 45.5178C58.4866 45.0489 58.75 44.413 58.75 43.75V35C58.75 27.375 55.721 20.0624 50.3293 14.6707C44.9376 9.27901 37.625 6.25 30 6.25V6.25Z" stroke="black" stroke-linecap="round" stroke-linejoin="round"/>
</svg>
