<svg viewBox="0 0 248 99" fill="none" xmlns="http://www.w3.org/2000/svg">
<path d="M23.98 21.1199H37.92V32.3799C40.07 25.4099 43.72 21.1199 51.76 21.1199L56.15 33.9899H51.32C42.2 33.9899 37.91 38.2799 37.91 47.3999V74.7499H23.98V21.1199Z" fill="black"/>
<path d="M114.82 21.1199L96.2699 74.7399H75.9999L57.4399 21.1199H72.2399L86.3999 64.4499L100.45 21.1199H114.82V21.1199Z" fill="black"/>
<path d="M120.89 0.899902H133.35V12.9099H120.89V0.899902V0.899902ZM120.15 21.1199H134.09V74.7499H120.15V21.1199Z" fill="black"/>
<path d="M141.98 21.1198H155.92V28.9498C159.14 23.5898 165.14 20.0498 172.12 20.0498C184.99 20.0498 190.78 28.6298 190.78 40.4298V74.7498H176.84V42.0298C176.84 35.0598 173.73 31.3098 168.37 31.3098H167.51C161.07 31.3098 155.93 37.4198 155.93 44.9298V74.7498H141.99V21.1198H141.98Z" fill="black"/>
<path d="M194.66 80.7498H208.6C209.24 84.3998 213.32 87.0798 220.61 87.0798H221.25C228.22 87.0798 233.8 82.8998 233.8 74.3198V67.2398C230.58 72.5998 224.58 74.7498 218.68 74.7498C206.35 74.7498 195.51 65.0998 195.51 47.3998C195.51 29.6998 206.34 20.0498 218.68 20.0498C224.58 20.0498 230.59 22.1898 233.8 27.5598V21.1198H247.74V76.0298C247.74 87.2898 238.52 98.3398 219.96 98.3398C205.7 98.3398 195.19 91.1498 194.66 80.7498ZM222.33 63.4798C228.77 63.4798 233.81 57.5798 233.81 47.3898C233.81 37.1998 228.77 31.2998 222.33 31.2998H221.47C214.71 31.2998 209.46 37.1998 209.46 47.3898C209.46 57.5798 214.72 63.4798 221.47 63.4798H222.33V63.4798Z" fill="black"/>
<path d="M0 0V75.08H15.48V0H0ZM13.28 12.94H2.2V2.25H13.28V12.94V12.94Z" fill="black"/>
</svg>