<?xml version="1.0" encoding="UTF-8"?>
<svg width="24px" height="24px" viewBox="0 0 24 24" version="1.1" xmlns="http://www.w3.org/2000/svg" xmlns:xlink="http://www.w3.org/1999/xlink">
    <!-- Generator: Sketch 59.1 (86144) - https://sketch.com -->
    <title>Untitled 3</title>
    <desc>Created with Sketch.</desc>
    <g id="Page-1" stroke="none" stroke-width="1" fill="none" fill-rule="evenodd">
        <g id="Google" transform="translate(0.000000, 0.000000)">
            <rect id="Mask" x="0" y="0" width="24" height="24"></rect>
            <path d="M11.9657509,1.00073897 C14.6895604,0.968504537 17.320696,1.99194776 19.3031136,3.85348622 L19.3031136,3.85348622 L16.1723443,6.98425545 L15.968673,6.79882053 C14.8621652,5.83731197 13.4371579,5.31754569 11.9657509,5.34029941 C9.10494505,5.34029941 6.67527473,7.27033604 5.80897436,9.86923714 C5.3496337,11.2311419 5.3496337,12.7058672 5.80897436,14.0677719 L5.80897436,14.0677719 C6.68333333,16.6626437 9.10897436,18.5926804 11.9697802,18.5926804 C13.4485348,18.5926804 14.7177656,18.2139258 15.7009158,17.5450613 L15.696,17.548 C16.7810211,16.8273415 17.5428901,15.7236113 17.8364115,14.4662736 L17.8888278,14.2128269 L11.9657509,14.2128269 L11.9657509,9.99011626 L22.3089744,9.99011626 C22.4379121,10.7234496 22.4983516,11.4729001 22.4983516,12.2183214 C22.4983516,15.5545851 21.3056777,18.3750979 19.2305861,20.2849881 L19.232,20.282 C17.4931166,21.8913373 15.1299298,22.8500948 12.3330107,22.9272024 L11.9657509,22.9322408 C7.81959707,22.9322408 4.02802198,20.5952445 2.16648352,16.8923141 L2.16648352,16.8923141 L2.01113732,16.5698521 C0.613021521,13.5426736 0.664803587,10.0363838 2.16648352,7.04469501 L2.16648352,7.04469501 L2.313459,6.76226267 C4.22269485,3.21942583 7.92590871,1.00073897 11.9657509,1.00073897 Z" id="G" fill="#000000" fill-rule="nonzero"></path>
        </g>
    </g>
</svg>