<svg xmlns="http://www.w3.org/2000/svg" viewBox="0 0 504 47.46"><defs><style>.cls-1{fill:#fff}</style></defs><title>MITTR_Primary_Single_RGB_R</title><path class="cls-1" d="M87.42 0v6.51h10.21v31.62h7.31V6.51h10.2V0H87.42z"/><path class="cls-1" d="M142.17 49.14c.64-3.57 2.51-5.87 6.35-5.87 3.31 0 5.6 2.4 5.81 5.87h-12.16m-7.25 2.93c0 8.16 5.12 14.5 14.19 14.5 7 0 11.36-4.11 12.37-9h-7.15c-.8 2.13-2.45 3.43-5.33 3.43-4.11 0-6.45-2.61-7-6.83h19.9c0-9.76-4.69-16.48-13.49-16.48-8 0-13.49 6.29-13.49 14.4M163.26 52.13c0 8.16 5.39 14.45 14 14.45 7.31 0 11.84-4.64 12.32-10.45h-7a5.11 5.11 0 01-5.49 4.64c-4.43 0-6.51-3.47-6.51-8.64s2.24-8.64 6.61-8.64a5 5 0 015 4.21h7.09c-1-5.92-5.33-10-12.43-10-8.32 0-13.65 6.29-13.65 14.45M198.27 27.65H191v38.13h7.25V50.26c0-3.73 2.35-6.29 5.55-6.29 3 0 4.75 2.08 4.75 5v16.8h7.25V47.92c0-6-3.79-10.24-9.44-10.24-3.73 0-6 1.44-7.95 4.32h-.16zM225.11 38.42H218v27.36h7.25V50.26c0-3.73 2.35-6.29 5.55-6.29 3 0 4.75 2.08 4.75 5v16.8h7.25V47.92c0-6-3.79-10.24-9.44-10.24a8.89 8.89 0 00-8.11 4.48h-.16zM265.38 52.13c0 5.33-2.51 8.91-6.93 8.91s-6.93-3.57-6.93-8.91 2.45-9 6.93-9 6.93 3.63 6.93 9m-21.22 0c0 8.16 5.81 14.45 14.29 14.45s14.29-6.29 14.29-14.45-5.81-14.45-14.29-14.45-14.29 6.32-14.29 14.45" transform="translate(-27.57 -27.65)"/><path class="cls-1" d="M246.66 0h7.25v38.13h-7.25z"/><path class="cls-1" d="M304.21 52.13c0 5.33-2.51 8.91-6.93 8.91s-6.93-3.57-6.93-8.91 2.45-9 6.93-9 6.93 3.63 6.93 9m-21.22 0c0 8.16 5.81 14.45 14.29 14.45s14.29-6.29 14.29-14.45-5.81-14.45-14.29-14.45S283 44 283 52.13M332.36 50.9c0 4.05-1.87 7.41-6.45 7.41-3.73 0-6.19-2.72-6.19-7.36s2.45-7.47 6.13-7.47c4.37 0 6.51 3.41 6.51 7.41m-19.14 15.69c.75 5.33 5.33 8.53 12.8 8.53 4.05 0 7.57-1 9.87-3.09 2-1.87 3.25-4.48 3.25-8.32V38.42h-7v2.88H332a8.82 8.82 0 00-7.57-3.63c-6.93 0-11.84 5.23-11.84 13.39s6 13.07 12.05 13.07a8.84 8.84 0 007.15-3.2h.21v3c0 3.73-2 5.71-6.08 5.71-3.36 0-4.91-1.33-5.49-3h-7.2M342.89 74.74h4.27c5.55 0 7.57-2.19 9.65-8.27l9.55-28.05H359l-3.84 12.32c-.85 2.51-1.6 6-1.6 6h-.11s-.91-3.47-1.76-6l-4.05-12.32h-7.62l7.36 19.46c1.62 4.12 2.12 5.93 2.12 7.42 0 2.24-1.17 3.73-4.05 3.73h-2.56z" transform="translate(-27.57 -27.65)"/><path class="cls-1" d="M430.66 2.39h7.25V8.9h-7.25z"/><path class="cls-1" d="M383 34.37h8.91c3.84 0 6 1.71 6 5.17s-2.08 5.23-6.13 5.23H383zm15.95 31.41h8.53l-9.52-15.71c4.8-1.6 7.54-5.25 7.54-10.58a11.38 11.38 0 00-3.41-8.27c-2.24-2.29-5.12-3.57-10-3.57h-16.67v38.13H383V51.06h7.1z" transform="translate(-27.57 -27.65)"/><path class="cls-1" d="M412.33 49.14c.64-3.57 2.51-5.87 6.35-5.87 3.31 0 5.6 2.4 5.81 5.87h-12.16m-7.25 2.93c0 8.16 5.12 14.51 14.18 14.51 7 0 11.36-4.11 12.37-9h-7.15C423.69 59.7 422 61 419.21 61c-4.11 0-6.45-2.61-7-6.83h19.84c0-9.76-4.69-16.48-13.49-16.48-8 0-13.49 6.29-13.49 14.4" transform="translate(-27.57 -27.65)"/><path class="cls-1" d="M412.53 38.13h6.93l10.16-27.36h-7.26l-6.26 18.56h-.1l-6.21-18.56h-7.36l10.1 27.36zM430.66 10.77h7.25v27.36h-7.25z"/><path class="cls-1" d="M474.34 49.14c.64-3.57 2.51-5.87 6.35-5.87 3.31 0 5.6 2.4 5.81 5.87h-12.16m-7.25 2.93c0 8.16 5.12 14.51 14.19 14.51 7 0 11.36-4.11 12.37-9h-7.15c-.8 2.08-2.45 3.36-5.28 3.36-4.11 0-6.45-2.61-7-6.83h19.84c0-9.76-4.69-16.48-13.49-16.48-8 0-13.49 6.29-13.49 14.4" transform="translate(-27.57 -27.65)"/><path class="cls-1" d="M472.7 38.13h6.55l5.02-17.93h.11l4.85 17.93h6.61L504 10.77h-7.04l-4.69 17.47h-.11l-4.85-17.47h-6.19l-4.58 17.47h-.11l-4.53-17.47h-7.2l8 27.36zM43.09 0h7.24v38.13h-7.24zM52.15 0v6.51h10.21v31.62h7.31V6.51h10.21V0H52.15zM29.15 0l-8.47 27.74L11.89 0H0v38.13h7.04V8l9.74 30.13h7.42L33.44 8v30.13h7.2V0H29.15z"/></svg>
