<svg xmlns="http://www.w3.org/2000/svg" viewBox="0 0 24 24" tabIndex="-1">
  <title>Instagram</title>
  <path d="M23.2 7.4c0-.9-.2-1.9-.5-2.7-.3-.8-.7-1.4-1.3-2-.6-.6-1.2-1-2-1.3-.9-.3-1.8-.5-2.7-.5-1.2-.1-1.6-.1-4.6-.1-3 0-3.4 0-4.6.1-.9 0-1.9.2-2.7.5-.8.3-1.4.7-2 1.3-.6.6-1 1.2-1.3 2-.3.9-.5 1.8-.5 2.7C.9 8.6.9 9 .9 12c0 3 0 3.4.1 4.6 0 .9.2 1.9.5 2.7.3.8.7 1.4 1.3 2 .6.6 1.2 1 2 1.3.9.3 1.8.5 2.7.5 1.2.1 1.6.1 4.6.1 3 0 3.4 0 4.6-.1.9 0 1.9-.2 2.7-.5 1.5-.6 2.7-1.8 3.3-3.3.3-.9.5-1.8.5-2.7.1-1.2.1-1.6.1-4.6 0-3-.1-3.4-.1-4.6zm-2 9.2c0 .7-.1 1.4-.4 2.1-.4 1-1.2 1.8-2.1 2.1-.7.2-1.4.4-2.1.4-1.2.1-1.5.1-4.6.1-3.1 0-3.4 0-4.6-.1-.7 0-1.4-.1-2.1-.4-.5-.2-.9-.5-1.3-.8-.4-.4-.7-.8-.8-1.3-.2-.7-.4-1.4-.4-2.1-.1-1.2-.1-1.5-.1-4.6 0-3.1 0-3.4.1-4.6 0-.7.1-1.4.4-2.1.2-.5.5-.9.8-1.3.4-.4.8-.7 1.3-.8.7-.2 1.4-.4 2.1-.4 1.2-.1 1.5-.1 4.6-.1 3.1 0 3.4 0 4.6.1.7 0 1.4.1 2.1.4.5.2.9.5 1.3.8.4.4.7.8.8 1.3.2.7.4 1.4.4 2.1.1 1.2.1 1.5.1 4.6 0 3.1-.1 3.4-.1 4.6zM12 6.2c-3.2 0-5.8 2.6-5.8 5.8 0 3.2 2.6 5.8 5.8 5.8 3.2 0 5.8-2.6 5.8-5.8 0-3.2-2.6-5.8-5.8-5.8zm0 9.6c-2.1 0-3.8-1.7-3.8-3.8 0-2.1 1.7-3.8 3.8-3.8 2.1 0 3.8 1.7 3.8 3.8 0 2.1-1.7 3.8-3.8 3.8zM19.4 6c0 .7-.6 1.4-1.4 1.4-.8 0-1.4-.6-1.4-1.4 0-.8.6-1.4 1.4-1.4.8 0 1.4.6 1.4 1.4z" />
</svg>
