<svg xmlns="http://www.w3.org/2000/svg" xmlns:xlink="http://www.w3.org/1999/xlink" width="22" height="14" viewBox="0 0 22 14" tabIndex="-1" aria-hidden="true">
    <defs>
        <path d="M8.195 3.01h14.107v9.714H8.195z"/>
    </defs>
    <g fill="none" fill-rule="evenodd" transform="translate(-.495 .444)">
        <path fill="#000" d="M5.006 9.732h2.437a6.366 6.366 0 0 1-.29-1.43H5.27c-1.758 0-3.184-1.537-3.184-3.432s1.426-3.432 3.184-3.432h4.82c1.759 0 3.184 1.537 3.184 3.432 0 1.54-.941 2.844-2.237 3.278.182.356.48.875.851 1.278 1.714-.69 2.933-2.468 2.933-4.556 0-2.685-2.018-4.862-4.51-4.862H5.006C2.515.008.496 2.185.496 4.87c0 2.686 2.019 4.862 4.51 4.862"/>
        <mask fill="#fff">
            <use xlink:href="#a"/>
        </mask>
        <path fill="#000" d="M8.195 7.867c0 2.682 1.989 4.857 4.441 4.857h5.225c2.453 0 4.441-2.175 4.441-4.857 0-2.683-1.988-4.858-4.441-4.858h-2.403c.147.454.245.933.288 1.429h1.897c1.731 0 3.134 1.535 3.134 3.429 0 1.893-1.403 3.428-3.134 3.428h-4.745c-1.732 0-3.136-1.535-3.136-3.428 0-1.57.964-2.891 2.279-3.299a2.334 2.334 0 0 0-.738-1.336c-1.801.62-3.108 2.46-3.108 4.635" mask="url(#b)"/>
    </g>
</svg>
