<svg xmlns="http://www.w3.org/2000/svg" viewBox="0 0 504 248.67" aria-hidden="true" tabIndex="-1">
	<path d="M174.65,63.63h14.46v76.12H174.65Zm-111,85.48v13H86.53v63.13h14.58V162.1H124v-13ZM193,63.63v13h24.66v63.13h14.48V76.62h24.66v-13ZM120.11,192h24.27c-.43-6.92-5-11.71-11.6-11.71-7.67,0-11.39,4.58-12.67,11.71m-14.48,5.86c0-16.18,11-28.74,26.93-28.74,17.57,0,26.93,13.41,26.93,32.9h-39.6c1.06,8.41,5.75,13.63,13.95,13.63,5.64,0,8.94-2.56,10.54-6.71h14.27c-2,9.69-10.65,17.88-24.7,17.88-18.1,0-28.32-12.67-28.32-29m56.58.11c0,16.29,10.75,28.85,28,28.85,14.59,0,23.63-9.26,24.59-20.87H200.85c-1,6.18-5.11,9.26-11,9.26-8.84,0-13-6.92-13-17.25,0-10.54,4.47-17.25,13.2-17.25a10,10,0,0,1,10,8.41h14.16c-1.92-11.82-10.65-20-24.8-20-16.61,0-27.25,12.56-27.25,28.85m69.89-48.86H217.62v76.12H232.1v-31c0-7.45,4.68-12.56,11.07-12.56,6.07,0,9.48,4.15,9.48,10v33.53h14.48V189.57c0-11.92-7.56-20.44-18.84-20.44-7.45,0-11.92,2.87-15.86,8.62h-.32Zm53.59,21.51H271.52v54.61H286v-31c0-7.45,4.68-12.56,11.07-12.56,6.07,0,9.48,4.15,9.48,10v33.53H321V189.57c0-11.92-7.56-20.44-18.84-20.44-7.45,0-12.45,3.09-16.18,8.94h-.32ZM366.07,198c0-10.65-5-17.88-13.84-17.88s-13.84,7.24-13.84,17.88,4.9,17.78,13.84,17.78,13.84-7.13,13.84-17.78m-42.37,0c0-16.29,11.6-28.85,28.53-28.85s28.53,12.56,28.53,28.85-11.6,28.85-28.53,28.85S323.7,214.26,323.7,198m60,27.25h14.48V149.11H383.75ZM443.58,198c0-10.65-5-17.88-13.84-17.88S415.9,187.33,415.9,198s4.9,17.78,13.84,17.78,13.84-7.13,13.84-17.78m-42.37,0c0-16.29,11.6-28.85,28.53-28.85s28.53,12.56,28.53,28.85-11.6,28.85-28.53,28.85S401.21,214.26,401.21,198m98.58-2.45c0-8-4.26-14.8-13-14.8-7.35,0-12.24,5.75-12.24,14.9s4.9,14.69,12.35,14.69c9.16,0,12.88-6.71,12.88-14.8m-38.22,31.3h14.37c1.17,3.41,4.26,6.07,11,6.07,8.2,0,12.14-3.94,12.14-11.39v-6h-.32a17.65,17.65,0,0,1-14.27,6.39c-12.14,0-24.06-9.58-24.06-26.08,0-16.29,9.79-26.72,23.63-26.72,6.81,0,11.82,2.66,15.12,7.24h.21v-5.75h13.95v50.46c0,7.66-2.45,12.88-6.49,16.61-4.58,4.26-11.6,6.17-19.69,6.17-14.9,0-24.06-6.39-25.55-17m59.23,16.29h8.52c11.07,0,15.12-4.36,19.27-16.5l19.06-56H553.06l-7.67,24.59c-1.7,5-3.19,11.92-3.19,11.92H542s-1.81-6.92-3.51-11.92l-8.09-24.59H515.16l14.69,38.86c3.09,8.3,4.15,11.82,4.15,14.8,0,4.47-2.34,7.45-8.09,7.45H520.8ZM101.62,268.76h18.55c8.09,0,12.23-3.72,12.23-10.43,0-6.92-4.36-10.33-12-10.33H101.62Zm15.14,12.56H101.62v29.38H86.51V234.59h34.29c9.7,0,15.44,2.55,19.91,7.13a22.71,22.71,0,0,1,6.81,16.5c0,10.65-5.48,17.93-15.06,21.12l19,31.36h-17Zm44.36-3.83h24.27c-.43-6.92-5-11.71-11.6-11.71-7.67,0-11.39,4.58-12.67,11.71m-14.48,5.85c0-16.18,11-28.74,26.93-28.74,17.57,0,26.93,13.41,26.93,32.89H160.9c1.06,8.41,5.75,13.63,13.95,13.63,5.64,0,8.94-2.55,10.54-6.71h14.27c-2,9.69-10.65,17.88-24.7,17.88-18.1,0-28.32-12.67-28.32-29m69.8,27.36h13.84l20.27-54.62H236.08l-12.5,37h-.21L211,256.1H196.28Zm36.2,0h14.48V256.1H252.64Zm0-58.36h14.48v-13H252.64Zm32.15,25.15h24.27c-.43-6.92-5-11.71-11.6-11.71-7.67,0-11.39,4.58-12.67,11.71m-14.48,5.85c0-16.18,11-28.74,26.93-28.74,17.56,0,26.93,13.41,26.93,32.89h-39.6c1.06,8.41,5.75,13.63,13.95,13.63,5.64,0,8.94-2.55,10.54-6.71h14.27c-2,9.69-10.65,17.88-24.7,17.88-18.1,0-28.32-12.67-28.32-29m66.17,27.36h13.1l10-35.79h.21l9.69,35.79h13.2L399,256.1H384.93L375.56,291h-.21l-9.69-34.87H353.31L344.15,291h-.21l-9-34.87H320.52ZM147,63.63,129,119.43l-18.81-55.8H86.51v76.12h14V79.48l20.52,60.27h14.8L155.4,79.48v60.27h14.37V63.63Z" transform="translate(-63.64 -63.63)">
	</path>
</svg>
