<svg width="184" height="92" xmlns="http://www.w3.org/2000/svg"><path d="M40.328.962h5.253v27.653h-5.253V.962zM.004 32.016v4.722h8.312v22.934h5.296V36.735h8.316v-4.723l-21.924.004zM46.994.962v4.723h8.959V28.62h5.26V5.682h8.958V.959L46.994.962zm-26.48 46.635h8.817c-.156-2.514-1.816-4.254-4.214-4.254-2.786 0-4.138 1.664-4.603 4.254m-5.26 2.129c0-5.878 3.996-10.441 9.783-10.441 6.383 0 9.783 4.872 9.783 11.952H20.435c.385 3.055 2.088 4.951 5.067 4.951 2.05 0 3.248-.93 3.83-2.437h5.183c-.726 3.52-3.869 6.495-8.973 6.495-6.575 0-10.288-4.602-10.288-10.535m20.555.04c0 5.918 3.905 10.48 10.171 10.48 5.3 0 8.585-3.363 8.934-7.58h-5.068c-.364 2.244-1.857 3.363-3.996 3.363-3.212 0-4.723-2.514-4.723-6.267 0-3.828 1.624-6.266 4.795-6.266a3.633 3.633 0 013.633 3.055H54.7c-.697-4.294-3.869-7.266-9.01-7.266-6.033 0-9.899 4.563-9.899 10.481m25.39-17.75h-5.242v27.653h5.26V48.392c0-2.706 1.7-4.562 4.022-4.562 2.205 0 3.444 1.507 3.444 3.632v12.181h5.26V46.714c0-4.33-2.746-7.425-6.844-7.425-2.707 0-4.33 1.042-5.762 3.131h-.116l-.022-10.419zm19.468 7.814h-5.13v19.84h5.261V48.391c0-2.706 1.7-4.562 4.022-4.562 2.205 0 3.444 1.507 3.444 3.632v12.181h5.249V46.714c0-4.33-2.746-7.425-6.844-7.425-2.707 0-4.523 1.122-5.878 3.247h-.116l-.008-2.72zm29.22 9.962c0-3.87-1.817-6.496-5.029-6.496-3.211 0-5.028 2.63-5.028 6.496 0 3.865 1.78 6.459 5.028 6.459 3.248 0 5.028-2.59 5.028-6.46m-15.392 0c0-5.917 4.214-10.48 10.364-10.48s10.365 4.563 10.365 10.48c0 5.918-4.214 10.481-10.365 10.481-6.15 0-10.364-4.574-10.364-10.48m21.797 9.899h5.26v-27.66h-5.242l-.018 27.66zm21.753-9.9c0-3.868-1.816-6.495-5.028-6.495-3.211 0-5.028 2.62-5.028 6.496 0 3.876 1.78 6.459 5.028 6.459 3.248 0 5.028-2.59 5.028-6.46m-15.392 0c0-5.917 4.214-10.48 10.364-10.48s10.365 4.563 10.365 10.48c0 5.918-4.214 10.481-10.365 10.481-6.15 0-10.364-4.574-10.364-10.48m35.812-.89c0-2.907-1.548-5.377-4.723-5.377-2.67 0-4.446 2.089-4.446 5.413 0 3.324 1.78 5.336 4.486 5.336 3.328 0 4.68-2.437 4.68-5.376m-13.885 11.37h5.22c.425 1.24 1.548 2.206 3.996 2.206 2.98 0 4.41-1.432 4.41-4.138v-2.18h-.116a6.412 6.412 0 01-5.184 2.322c-4.41 0-8.74-3.48-8.74-9.475 0-5.918 3.556-9.707 8.584-9.707 2.474 0 4.294.967 5.493 2.63h.076v-2.088h5.068v18.33c0 2.784-.89 4.68-2.358 6.035-1.664 1.547-4.214 2.241-7.153 2.241-5.413 0-8.74-2.321-9.282-6.175m21.517 5.917h3.096c4.021 0 5.492-1.583 7-5.994l6.924-20.343h-5.311l-2.786 8.933c-.618 1.816-1.16 4.33-1.16 4.33h-.072s-.657-2.514-1.275-4.33l-2.939-8.933h-5.536l5.336 14.117c1.123 3.015 1.508 4.294 1.508 5.376 0 1.624-.85 2.707-2.94 2.707h-1.855l.01 4.137zm-152.29 9.311h6.738c2.94 0 4.443-1.351 4.443-3.789 0-2.514-1.584-3.752-4.36-3.752h-6.822v7.541zm5.5 4.563h-5.5v10.673h-5.49V63.07h12.457c3.524 0 5.61.926 7.233 2.59a8.25 8.25 0 012.474 5.994c0 3.87-1.99 6.514-5.471 7.673l6.902 11.392h-6.175l-6.43-10.673zm16.115-1.391h8.816c-.156-2.514-1.816-4.254-4.214-4.254-2.786 0-4.137 1.664-4.602 4.254m-5.26 2.125c0-5.878 3.995-10.44 9.782-10.44 6.383 0 9.784 4.87 9.784 11.948H35.333c.385 3.055 2.089 4.951 5.067 4.951 2.05 0 3.248-.926 3.83-2.438h5.183c-.726 3.52-3.868 6.496-8.973 6.496-6.575 0-10.288-4.603-10.288-10.535M55.51 90.7h5.028l7.364-19.843h-5.257l-4.54 13.441h-.077l-4.494-13.416h-5.347L55.509 90.7zm13.151 0h5.26V70.882h-5.26V90.7zm0-21.202h5.26v-4.723h-5.26V69.5zm11.68 9.137h8.816c-.156-2.514-1.816-4.254-4.214-4.254-2.786 0-4.137 1.663-4.602 4.254m-5.26 2.125c0-5.878 3.995-10.44 9.782-10.44 6.38 0 9.784 4.87 9.784 11.947H80.26c.385 3.056 2.089 4.952 5.067 4.952 2.05 0 3.248-.926 3.83-2.438h5.183c-.726 3.52-3.869 6.496-8.973 6.496-6.575 0-10.288-4.603-10.288-10.535m24.039 9.939h4.759l3.632-13.002h.077l3.52 13.002h4.795l5.929-19.799h-5.111l-3.404 12.679h-.077l-3.52-12.668h-4.486l-3.328 12.668h-.076l-3.27-12.668H93.32l5.798 19.788zM30.283.962l-6.539 20.272L16.911.962H8.308v27.653h5.086V6.72l7.455 21.895h5.376l7.11-21.895v21.895h5.22V.962h-8.272z" fill="#000" fill-rule="nonzero"/></svg>
