<svg xmlns="http://www.w3.org/2000/svg" viewBox="0 0 504 47.46" tabIndex="-1" aria-hidden="true">
	<polygon points="87.42 0 87.42 6.51 97.63 6.51 97.63 38.13 104.94 38.13 104.94 6.51 115.14 6.51 115.14 0 87.42 0">
	</polygon>
	<path d="M142.17,49.14c.64-3.57,2.51-5.87,6.35-5.87,3.31,0,5.6,2.4,5.81,5.87H142.17m-7.25,2.93c0,8.16,5.12,14.5,14.19,14.5,7,0,11.36-4.11,12.37-9h-7.15C153.53,59.7,151.88,61,149,61c-4.11,0-6.45-2.61-7-6.83H161.9c0-9.76-4.69-16.48-13.49-16.48-8,0-13.49,6.29-13.49,14.4" transform="translate(-27.57 -27.65)">
	</path>
	<path d="M163.26,52.13c0,8.16,5.39,14.45,14,14.45,7.31,0,11.84-4.64,12.32-10.45h-7a5.11,5.11,0,0,1-5.49,4.64c-4.43,0-6.51-3.47-6.51-8.64s2.24-8.64,6.61-8.64a5,5,0,0,1,5,4.21h7.09c-1-5.92-5.33-10-12.43-10-8.32,0-13.65,6.29-13.65,14.45" transform="translate(-27.57 -27.65)">
	</path>
	<path d="M198.27,27.65H191V65.78h7.25V50.26c0-3.73,2.35-6.29,5.55-6.29,3,0,4.75,2.08,4.75,5v16.8h7.25V47.92c0-6-3.79-10.24-9.44-10.24-3.73,0-6,1.44-7.95,4.32h-.16Z" transform="translate(-27.57 -27.65)">
	</path>
	<path d="M225.11,38.42H218V65.78h7.25V50.26c0-3.73,2.35-6.29,5.55-6.29,3,0,4.75,2.08,4.75,5v16.8h7.25V47.92c0-6-3.79-10.24-9.44-10.24a8.89,8.89,0,0,0-8.11,4.48h-.16Z" transform="translate(-27.57 -27.65)">
	</path>
	<path d="M265.38,52.13c0,5.33-2.51,8.91-6.93,8.91s-6.93-3.57-6.93-8.91,2.45-9,6.93-9,6.93,3.63,6.93,9m-21.22,0c0,8.16,5.81,14.45,14.29,14.45s14.29-6.29,14.29-14.45-5.81-14.45-14.29-14.45S244.16,44,244.16,52.13" transform="translate(-27.57 -27.65)">
	</path>
	<rect x="246.66" width="7.25" height="38.13">
	</rect>
	<path d="M304.21,52.13c0,5.33-2.51,8.91-6.93,8.91s-6.93-3.57-6.93-8.91,2.45-9,6.93-9,6.93,3.63,6.93,9m-21.22,0c0,8.16,5.81,14.45,14.29,14.45s14.29-6.29,14.29-14.45-5.81-14.45-14.29-14.45S283,44,283,52.13" transform="translate(-27.57 -27.65)">
	</path>
	<path d="M332.36,50.9c0,4.05-1.87,7.41-6.45,7.41-3.73,0-6.19-2.72-6.19-7.36s2.45-7.47,6.13-7.47c4.37,0,6.51,3.41,6.51,7.41M313.22,66.58c.75,5.33,5.33,8.53,12.8,8.53,4.05,0,7.57-1,9.87-3.09,2-1.87,3.25-4.48,3.25-8.32V38.42h-7V41.3H332a8.82,8.82,0,0,0-7.57-3.63c-6.93,0-11.84,5.23-11.84,13.39s6,13.07,12.05,13.07a8.84,8.84,0,0,0,7.15-3.2H332v3c0,3.73-2,5.71-6.08,5.71-3.36,0-4.91-1.33-5.49-3h-7.2" transform="translate(-27.57 -27.65)">
	</path>
	<path d="M342.89,74.74h4.27c5.55,0,7.57-2.19,9.65-8.27l9.55-28.05H359l-3.84,12.32c-.85,2.51-1.6,6-1.6,6h-.11s-.91-3.47-1.76-6l-4.05-12.32h-7.62l7.36,19.46C349,62,349.5,63.81,349.5,65.3c0,2.24-1.17,3.73-4.05,3.73h-2.56Z" transform="translate(-27.57 -27.65)">
	</path>
	<rect x="430.66" y="2.39" width="7.25" height="6.51">
	</rect>
	<path d="M383,34.37h8.91c3.84,0,6,1.71,6,5.17s-2.08,5.23-6.13,5.23H383Zm15.95,31.41h8.53l-9.52-15.71c4.8-1.6,7.54-5.25,7.54-10.58a11.38,11.38,0,0,0-3.41-8.27c-2.24-2.29-5.12-3.57-10-3.57H375.42V65.78H383V51.06h7.1Z" transform="translate(-27.57 -27.65)">
	</path>
	<path d="M412.33,49.14c.64-3.57,2.51-5.87,6.35-5.87,3.31,0,5.6,2.4,5.81,5.87H412.33m-7.25,2.93c0,8.16,5.12,14.51,14.18,14.51,7,0,11.36-4.11,12.37-9h-7.15C423.69,59.7,422,61,419.21,61c-4.11,0-6.45-2.61-7-6.83h19.84c0-9.76-4.69-16.48-13.49-16.48-8,0-13.49,6.29-13.49,14.4" transform="translate(-27.57 -27.65)">
	</path>
	<polygon points="412.53 38.13 419.46 38.13 429.62 10.77 422.36 10.77 416.1 29.33 416 29.33 409.79 10.77 402.43 10.77 412.53 38.13">
	</polygon>
	<rect x="430.66" y="10.77" width="7.25" height="27.36">
	</rect>
	<path d="M474.34,49.14c.64-3.57,2.51-5.87,6.35-5.87,3.31,0,5.6,2.4,5.81,5.87H474.34m-7.25,2.93c0,8.16,5.12,14.51,14.19,14.51,7,0,11.36-4.11,12.37-9H486.5c-.8,2.08-2.45,3.36-5.28,3.36-4.11,0-6.45-2.61-7-6.83h19.84c0-9.76-4.69-16.48-13.49-16.48-8,0-13.49,6.29-13.49,14.4" transform="translate(-27.57 -27.65)">
	</path>
	<polygon points="472.7 38.13 479.25 38.13 484.27 20.2 484.38 20.2 489.23 38.13 495.84 38.13 504 10.77 496.96 10.77 492.27 28.24 492.16 28.24 487.31 10.77 481.12 10.77 476.54 28.24 476.43 28.24 471.9 10.77 464.7 10.77 472.7 38.13">
	</polygon>
	<rect x="43.09" width="7.24" height="38.13">
	</rect>
	<polygon points="52.15 0 52.15 6.51 62.36 6.51 62.36 38.13 69.67 38.13 69.67 6.51 79.88 6.51 79.88 0 52.15 0">
	</polygon>
	<polygon points="29.15 0 20.68 27.74 11.89 0 0 0 0 38.13 7.04 38.13 7.04 8 16.78 38.13 24.2 38.13 33.44 8 33.44 38.13 40.64 38.13 40.64 0 29.15 0">
	</polygon>
</svg>
