<svg width="25" height="32" viewBox="0 0 25 32" xmlns="http://www.w3.org/2000/svg" tabIndex="-1"><title>Pinterest</title><path d="M14.526 23.21c-1.948-.153-2.766-1.118-4.293-2.046-.84 4.406-1.866 8.63-4.906 10.836-.94-6.658 1.377-11.66 2.453-16.968-1.834-3.087.22-9.3 4.09-7.77 4.758 1.883-4.123 11.478 1.84 12.676 6.223 1.25 8.765-10.8 4.905-14.72C13.038-.44 2.38 5.088 3.69 13.19c.32 1.982 2.367 2.583.82 5.317-3.57-.792-4.636-3.607-4.5-7.36C.233 5.004 5.53.703 10.847.107c6.722-.752 13.03 2.468 13.902 8.79.98 7.138-3.034 14.867-10.222 14.312z" /></svg>
