<svg xmlns="http://www.w3.org/2000/svg" viewBox="0 0 25 25" tabindex="-1"><title>WhatsApp</title><path d="M0,25l1.77-6.42A12.43,12.43,0,0,1,21.36,3.63,12.3,12.3,0,0,1,25,12.4,12.46,12.46,0,0,1,6.6,23.28Zm6.91-4A10.32,10.32,0,1,0,12.56,2.09,10.32,10.32,0,0,0,4,18.26l-1,3.8Zm11.91-5.69c-.07-.13-.28-.2-.59-.36s-1.84-.9-2.13-1-.49-.15-.7.16-.8,1-1,1.21-.37.24-.68.08a8.35,8.35,0,0,1-2.5-1.54,9.41,9.41,0,0,1-1.73-2.14c-.18-.31,0-.48.14-.63s.31-.36.46-.54a2.14,2.14,0,0,0,.32-.52.56.56,0,0,0,0-.54c-.08-.16-.7-1.68-1-2.3s-.51-.52-.7-.53H8.15a1.12,1.12,0,0,0-.83.38A3.45,3.45,0,0,0,6.23,9.64a6,6,0,0,0,1.27,3.2,13.74,13.74,0,0,0,5.31,4.67c.74.32,1.32.51,1.77.66a4.36,4.36,0,0,0,2,.12,3.21,3.21,0,0,0,2.1-1.47,2.57,2.57,0,0,0,.18-1.48Z"/></svg>