<svg width="16" height="15" xmlns="http://www.w3.org/2000/svg"><path d="M15.197 10.569c-.39-.199-2.328-1.15-2.69-1.278-.362-.135-.625-.199-.888.199-.262.397-1.015 1.278-1.249 1.547-.227.263-.461.298-.852.1C7.204 9.98 5.685 9.07 4.16 6.452c-.404-.696.405-.646 1.157-2.15.128-.263.064-.49-.035-.69-.1-.198-.887-2.136-1.214-2.924-.32-.766-.646-.66-.887-.674C2.953 0 2.69 0 2.427 0c-.262 0-.688.1-1.05.49C1.015.887 0 1.838 0 3.776S1.412 7.588 1.604 7.85c.199.263 2.775 4.238 6.729 5.948 2.498 1.08 3.478 1.171 4.727.987.76-.114 2.328-.951 2.655-1.874.326-.923.326-1.71.227-1.874-.092-.177-.355-.277-.745-.468z" /></svg>
